<svg version="1.1" xmlns="http://www.w3.org/2000/svg" viewBox="0 0 908 406.5" width="908" height="406.5">
  <!-- svg-source:excalidraw -->
  
  <defs>
    <style class="style-fonts">
      @font-face {
        font-family: "Virgil";
        src: url("https://excalidraw.com/Virgil.woff2");
      }
      @font-face {
        font-family: "Cascadia";
        src: url("https://excalidraw.com/Cascadia.woff2");
      }
    </style>
    
  </defs>
  <rect x="0" y="0" width="908" height="406.5" fill="#ffffff"></rect><g stroke-linecap="round" transform="translate(13 10) rotate(0 125 49.5)"><path d="M24.75 0 M24.75 0 C72.68 -0.86, 118.57 -1.61, 225.25 0 M24.75 0 C78.51 -0.16, 131.92 -0.55, 225.25 0 M225.25 0 C242.66 0.96, 248.64 9.41, 250 24.75 M225.25 0 C240.65 -1.85, 251.81 6.92, 250 24.75 M250 24.75 C248.35 35.03, 248.31 45.61, 250 74.25 M250 24.75 C250.71 34.37, 250.44 45.59, 250 74.25 M250 74.25 C251.67 90.36, 242.98 100.43, 225.25 99 M250 74.25 C250.1 89.3, 241.91 97.02, 225.25 99 M225.25 99 C152.06 100.97, 76.71 100.56, 24.75 99 M225.25 99 C160 99.35, 94.05 97.94, 24.75 99 M24.75 99 C9.12 98.76, 1.73 88.79, 0 74.25 M24.75 99 C9.88 97.9, -0.62 92.85, 0 74.25 M0 74.25 C1.47 55.84, 1.23 37.98, 0 24.75 M0 74.25 C-0.05 59.79, 0.77 47.57, 0 24.75 M0 24.75 C-1.8 7.62, 9.31 0.96, 24.75 0 M0 24.75 C-2.04 9.63, 8.33 1.47, 24.75 0" stroke="#1e1e1e" stroke-width="1" fill="none"></path></g><g transform="translate(70.10002136230469 42) rotate(0 67.89997863769531 17.5)"><text x="67.89997863769531" y="0" font-family="Virgil, Segoe UI Emoji" font-size="28px" fill="#1e1e1e" text-anchor="middle" style="white-space: pre;" direction="ltr" dominant-baseline="text-before-edge">PARTIDO</text></g><g stroke-linecap="round" transform="translate(648 296.5) rotate(0 125 50)"><path d="M25 0 M25 0 C82.49 2.1, 138.75 -0.43, 225 0 M25 0 C72.7 -1.31, 120.17 -0.99, 225 0 M225 0 C240.06 -0.97, 249.63 6.66, 250 25 M225 0 C240.43 0.58, 250.84 7.54, 250 25 M250 25 C250.07 44.08, 251.2 64.36, 250 75 M250 25 C250.33 40.02, 249.86 54.25, 250 75 M250 75 C250.16 93.51, 240.69 101.45, 225 100 M250 75 C250.85 89.85, 240.32 98.18, 225 100 M225 100 C155.94 98.8, 88.22 98.88, 25 100 M225 100 C169.93 101.97, 113.37 101.77, 25 100 M25 100 C8.86 101.75, -1.28 90.02, 0 75 M25 100 C8.71 100.8, -0.99 89.52, 0 75 M0 75 C-1.26 62.58, 0.23 51.18, 0 25 M0 75 C-0.86 59.16, 0.61 44.56, 0 25 M0 25 C-0.24 7.15, 10.15 1.48, 25 0 M0 25 C0.8 8.42, 7.92 1.69, 25 0" stroke="#1e1e1e" stroke-width="1" fill="none"></path></g><g transform="translate(653.6780319213867 329) rotate(0 119.32196807861328 17.5)"><text x="119.32196807861328" y="0" font-family="Virgil, Segoe UI Emoji" font-size="28px" fill="#1e1e1e" text-anchor="middle" style="white-space: pre;" direction="ltr" dominant-baseline="text-before-edge">DEPARTAMENTO</text></g><g stroke-linecap="round" transform="translate(17 293) rotate(0 125 50)"><path d="M25 0 M25 0 C81.23 1.65, 139.99 0.95, 225 0 M25 0 C97.94 -0.42, 172.46 0.32, 225 0 M225 0 C240.59 -1.06, 248.02 7.65, 250 25 M225 0 C243.84 -2.26, 251.74 8.31, 250 25 M250 25 C250.66 35.87, 248.5 48.54, 250 75 M250 25 C250.92 43.33, 249.71 62.35, 250 75 M250 75 C250.86 90.8, 241.54 100.48, 225 100 M250 75 C247.76 93.02, 243 99.88, 225 100 M225 100 C151.62 100.77, 76.42 103.4, 25 100 M225 100 C183.84 98.05, 142.87 99.18, 25 100 M25 100 C9.3 100.67, 1.72 90.68, 0 75 M25 100 C10.11 98.92, 0.9 89.87, 0 75 M0 75 C-1.01 61.93, 2.08 45.22, 0 25 M0 75 C0.52 59.38, -0.46 45.37, 0 25 M0 25 C-0.8 9.68, 8.1 -1.26, 25 0 M0 25 C0.87 9.02, 7.07 -1.53, 25 0" stroke="#1e1e1e" stroke-width="1" fill="none"></path></g><g transform="translate(93.09801483154297 325.5) rotate(0 48.90198516845703 17.5)"><text x="48.90198516845703" y="0" font-family="Virgil, Segoe UI Emoji" font-size="28px" fill="#1e1e1e" text-anchor="middle" style="white-space: pre;" direction="ltr" dominant-baseline="text-before-edge">CARGO</text></g><g stroke-linecap="round" transform="translate(644 157) rotate(0 125 50)"><path d="M25 0 M25 0 C89.63 -0.71, 155.33 1.95, 225 0 M25 0 C90.3 -0.69, 156.9 -1.33, 225 0 M225 0 C239.93 -1.96, 249.16 10.14, 250 25 M225 0 C243.41 -0.72, 247.82 10.33, 250 25 M250 25 C249.61 38.59, 251.54 56.38, 250 75 M250 25 C249.78 37.55, 250.89 51.94, 250 75 M250 75 C248.46 93.24, 242.87 98.95, 225 100 M250 75 C250.93 93.05, 241.37 100.68, 225 100 M225 100 C159.34 98.15, 95.27 101.43, 25 100 M225 100 C152.11 100.53, 77.94 101.31, 25 100 M25 100 C6.47 99.41, -0.54 92.78, 0 75 M25 100 C7.99 99.73, -2.07 92.5, 0 75 M0 75 C-1.76 54.72, -1.91 36.28, 0 25 M0 75 C-1.05 55.88, 0.64 38.88, 0 25 M0 25 C1.06 10.13, 8.51 1.29, 25 0 M0 25 C-0.04 6.9, 10.46 -1.79, 25 0" stroke="#1e1e1e" stroke-width="1" fill="none"></path></g><g transform="translate(682.9700241088867 189.5) rotate(0 86.02997589111328 17.5)"><text x="86.02997589111328" y="0" font-family="Virgil, Segoe UI Emoji" font-size="28px" fill="#1e1e1e" text-anchor="middle" style="white-space: pre;" direction="ltr" dominant-baseline="text-before-edge">CIUDADANO</text></g><g stroke-linecap="round" transform="translate(10 148) rotate(0 125 50)"><path d="M25 0 M25 0 C101.6 -1.93, 175.24 -0.86, 225 0 M25 0 C74.06 0.1, 123.35 -1.45, 225 0 M225 0 C243.04 0.17, 248.56 6.67, 250 25 M225 0 C242 -0.01, 250.33 8.79, 250 25 M250 25 C249.62 40.05, 250.33 53.52, 250 75 M250 25 C249.58 36.61, 250.71 47.76, 250 75 M250 75 C250.1 92.1, 243.12 98.44, 225 100 M250 75 C252.09 92.07, 239.72 100, 225 100 M225 100 C176.21 98.64, 122.84 100.63, 25 100 M225 100 C156.48 101.15, 86.44 101.48, 25 100 M25 100 C7.51 101.53, -1.96 90.62, 0 75 M25 100 C10.16 97.86, -0.55 93.17, 0 75 M0 75 C2.16 63.73, -0.09 53.17, 0 25 M0 75 C-0.44 58.08, -1.19 40.72, 0 25 M0 25 C1.99 9.56, 6.69 -0.78, 25 0 M0 25 C-0.73 8.56, 6.59 -1.61, 25 0" stroke="#1e1e1e" stroke-width="1" fill="none"></path></g><g transform="translate(47.71002197265625 180.5) rotate(0 87.28997802734375 17.5)"><text x="87.28997802734375" y="0" font-family="Virgil, Segoe UI Emoji" font-size="28px" fill="#1e1e1e" text-anchor="middle" style="white-space: pre;" direction="ltr" dominant-baseline="text-before-edge">CANDIDATO</text></g><g stroke-linecap="round" transform="translate(347 293) rotate(0 125 50)"><path d="M25 0 M25 0 C99.43 0.51, 175.64 2.64, 225 0 M25 0 C80.05 0.67, 135.25 0.72, 225 0 M225 0 C240.1 -0.13, 249.38 8.99, 250 25 M225 0 C240.75 -0.71, 249.31 8.52, 250 25 M250 25 C248.13 41.95, 249.11 61.22, 250 75 M250 25 C250.09 38.94, 250.12 54.11, 250 75 M250 75 C249.87 90.93, 241.75 99.19, 225 100 M250 75 C252.28 90.12, 241.52 102.22, 225 100 M225 100 C150.05 100.01, 78.37 102.76, 25 100 M225 100 C182.14 101.29, 137.49 101.37, 25 100 M25 100 C7.47 99.52, 0.65 90.97, 0 75 M25 100 C7.96 101.01, -1.69 92.18, 0 75 M0 75 C1.45 59.23, 2.39 44.03, 0 25 M0 75 C-0.34 62.41, 0.13 48.58, 0 25 M0 25 C0.93 8.72, 6.71 -0.62, 25 0 M0 25 C-0.87 7.15, 7.24 1.31, 25 0" stroke="#1e1e1e" stroke-width="1" fill="none"></path></g><g transform="translate(434.1440124511719 325.5) rotate(0 37.855987548828125 17.5)"><text x="37.855987548828125" y="0" font-family="Virgil, Segoe UI Emoji" font-size="28px" fill="#1e1e1e" text-anchor="middle" style="white-space: pre;" direction="ltr" dominant-baseline="text-before-edge">MESA</text></g><g stroke-linecap="round" transform="translate(347 153) rotate(0 125 50)"><path d="M25 0 M25 0 C75.03 -0.53, 126.02 -1.22, 225 0 M25 0 C72.15 1.56, 119.27 0.19, 225 0 M225 0 C243.39 0.99, 251.82 6.97, 250 25 M225 0 C241.29 2.26, 250.98 6.92, 250 25 M250 25 C248.04 38.45, 250.94 49.1, 250 75 M250 25 C250.82 43.18, 251.21 62.01, 250 75 M250 75 C248.63 92.4, 242.77 99, 225 100 M250 75 C249.13 92.75, 242.16 101.29, 225 100 M225 100 C170.71 99.12, 114.7 100.35, 25 100 M225 100 C179.27 100.11, 134.74 101.42, 25 100 M25 100 C10.24 100.33, 0.41 92.58, 0 75 M25 100 C7.22 99.41, -1.49 90.03, 0 75 M0 75 C0.52 55.95, -1.68 40.21, 0 25 M0 75 C-0.26 64.42, -0.98 54.06, 0 25 M0 25 C0.78 9.13, 8.57 0.4, 25 0 M0 25 C-1.5 8.01, 8.88 0.48, 25 0" stroke="#1e1e1e" stroke-width="1" fill="none"></path></g><g transform="translate(433.17801666259766 185.5) rotate(0 38.821983337402344 17.5)"><text x="38.821983337402344" y="0" font-family="Virgil, Segoe UI Emoji" font-size="28px" fill="#1e1e1e" text-anchor="middle" style="white-space: pre;" direction="ltr" dominant-baseline="text-before-edge">VOTO</text></g><g stroke-linecap="round"><g transform="translate(125 108) rotate(0 1.0464164804994311 21.257537043467163)"><path d="M1.14 -0.77 C1.29 6.27, 1.68 36.19, 1.81 43.29 M0.28 1.43 C0.26 8.62, 1.06 34.47, 1.29 41.32" stroke="#1e1e1e" stroke-width="1" fill="none"></path></g></g><mask></mask><g stroke-linecap="round"><g transform="translate(128 249) rotate(0 0.6251721508706112 23.731408132947976)"><path d="M-0.86 -0.19 C-0.76 7.73, -0.34 39.32, -0.07 47.17 M0.89 -1.33 C1.41 6.84, 2.26 40.54, 2.09 48.8" stroke="#1e1e1e" stroke-width="1" fill="none"></path></g></g><mask></mask><g stroke-linecap="round"><g transform="translate(265 201) rotate(0 38.198357152705995 -1.4131681158300538)"><path d="M0.4 -0.08 C13.15 -0.15, 64.54 -0.86, 77.25 -1.1 M-0.86 -1.17 C11.7 -1.5, 63.68 -2.34, 76.44 -2.75" stroke="#1e1e1e" stroke-width="1" fill="none"></path></g></g><mask></mask><g stroke-linecap="round"><g transform="translate(597 199) rotate(0 24.564134187912543 0.5349609527102572)"><path d="M1.02 1.16 C9.37 0.97, 41.17 -0.21, 49.03 -0.08 M0.1 0.72 C8.38 1.17, 39.68 1, 48.1 0.89" stroke="#1e1e1e" stroke-width="1" fill="none"></path></g></g><mask></mask><g stroke-linecap="round"><g transform="translate(476 253) rotate(0 0.32627211204999185 23.561303167678417)"><path d="M-0.61 0.95 C-0.63 8.75, 0.71 38.16, 0.81 45.81 M1.27 0.4 C0.99 8.39, -0.42 38.77, -0.24 46.72" stroke="#1e1e1e" stroke-width="1" fill="none"></path></g></g><mask></mask><g stroke-linecap="round"><g transform="translate(597 343) rotate(0 25.662989049777366 -0.26589630576648915)"><path d="M-0.62 -1.13 C7.9 -1.45, 43.4 -1.47, 51.94 -1.39 M1.26 0.9 C9.63 0.69, 43.42 0.56, 51.49 -0.05" stroke="#1e1e1e" stroke-width="1" fill="none"></path></g></g><mask></mask></svg>